<svg width="459" height="459" viewBox="0 0 459 459" fill="none" xmlns="http://www.w3.org/2000/svg">
<path d="M124.312 309.825C150.718 309.825 172.124 288.419 172.124 262.013C172.124 235.607 150.718 214.201 124.312 214.201C97.9062 214.201 76.5 235.607 76.5 262.013C76.5 288.419 97.9062 309.825 124.312 309.825Z" fill="#192F59"/>
<path d="M95.625 323.213V416.925L124.313 388.237L153 416.925V323.213C143.438 327.038 133.875 328.95 124.312 328.95C114.749 328.95 105.188 327.038 95.625 323.213Z" fill="#192F59"/>
<path d="M420.75 42.075H38.25C17.212 42.075 0 59.2879 0 80.3249V328.95C0 349.987 17.212 367.2 38.25 367.2H76.5V307.913C65.025 296.437 57.375 279.225 57.375 262.013C57.375 225.676 87.975 195.075 124.313 195.075C160.651 195.075 191.251 225.675 191.251 262.013C191.251 281.138 183.601 296.438 172.126 307.913V367.2H420.75C441.787 367.2 459 349.987 459 328.95V80.3249C459 59.2879 441.787 42.075 420.75 42.075ZM401.625 271.575H286.875V252.45H401.625V271.575ZM401.625 214.2H229.5V195.075H401.625V214.2ZM401.625 156.825H57.375V137.7H401.625V156.825Z" fill="#192F59"/>
</svg>
